<svg width="60" height="60" viewBox="0 0 60 60" version="1.1" xmlns="http://www.w3.org/2000/svg" xmlns:xlink="http://www.w3.org/1999/xlink">
<title>billboard</title>
<desc>Created using Figma</desc>
<g id="Canvas" transform="translate(-126 -193)">
<g id="billboard">
<g id="Group">
<g id="Group">
<g id="Group">
<g id="Vector">
<use xlink:href="#path0_fill" transform="translate(126 223)" fill="#2ED877"/>
</g>
<g id="Vector">
<use xlink:href="#path1_fill" transform="translate(131 230)" fill="#2ED877"/>
</g>
<g id="Vector">
<use xlink:href="#path2_fill" transform="translate(168 207)" fill="#2ED877"/>
</g>
<g id="Vector">
<use xlink:href="#path3_fill" transform="translate(133 235)" fill="#2ED877"/>
</g>
<g id="Vector">
<use xlink:href="#path4_fill" transform="translate(130 237)" fill="#2ED877"/>
</g>
<g id="Vector">
<use xlink:href="#path5_fill" transform="translate(136 205)" fill="#2ED877"/>
</g>
<g id="Vector">
<use xlink:href="#path6_fill" transform="translate(136 213)" fill="#2ED877"/>
</g>
<g id="Vector">
<use xlink:href="#path7_fill" transform="translate(136 209)" fill="#2ED877"/>
</g>
<g id="Vector">
<use xlink:href="#path8_fill" transform="translate(142 218)" fill="#2ED877"/>
</g>
<g id="Vector">
<use xlink:href="#path9_fill" transform="translate(126 193)" fill="#2ED877"/>
</g>
<g id="Vector">
<use xlink:href="#path10_fill" transform="translate(150 209)" fill="#2ED877"/>
</g>
<g id="Vector">
<use xlink:href="#path11_fill" transform="translate(141.999 211.999)" fill="#2ED877"/>
</g>
</g>
</g>
</g>
</g>
</g>
<defs>
<path id="path0_fill" d="M 57 24.0001C 56.827 24.0001 56.655 24.0151 56.486 24.0451C 55.7971 22.8021 54.482 22.0001 53 22.0001C 51.5181 22.0001 50.203 22.8021 49.5141 24.0451C 49.3451 24.0151 49.173 24.0001 49.0001 24.0001C 48.6471 24.0001 48.3141 24.0721 48.0001 24.1841L 48.0001 13.0001C 48.0001 12.4481 47.5532 12.0001 47.0002 12.0001C 46.4471 12.0001 46.0002 12.4481 46.0002 13.0001L 46.0002 28.0001L 44.0002 28.0001L 44.0002 13.0001C 44.0002 12.4481 43.5532 12.0001 43.0002 12.0001C 42.4472 12.0001 42.0002 12.4481 42.0002 13.0001L 42.0002 28.0001L 18 28.0001L 18 13.0001C 18 12.4481 17.553 12.0001 17 12.0001C 16.447 12.0001 16.0001 12.4481 16.0001 13.0001L 16.0001 28.0001L 14 28.0001L 14 24.0001C 14 23.4482 13.5531 23.0002 13.0001 23.0002C 12.4471 23.0002 12.0001 23.4482 12.0001 24.0001L 12.0001 28.0001L 8.00004 28.0001L 8.00004 21.9311C 11.529 21.487 14 18.7131 14 15C 14 9.09996 10.9941 -8.29697e-07 7.00008 -8.29697e-07C 3.00609 -8.29697e-07 0 9.10008 0 15.0001C 0 18.5841 2.56605 21.4512 6 21.9241L 6 28.0002L 0.999961 28.0002C 0.446953 28.0002 0 28.4482 0 29.0002C 0 29.5521 0.446953 30.0001 0.999961 30.0001L 49 30.0001L 57 30.0001C 58.654 30.0001 60 28.6541 60 27.0001C 60 25.3461 58.654 24.0001 57 24.0001ZM 2.00004 15.0001C 2.00004 8.97316 5.025 2.00015 7.00008 2.00015C 8.97516 2.00015 12 8.97316 12 15.0001C 12 17.9441 9.94395 20.0002 6.99996 20.0002C 4.14902 20.0002 2.00004 17.8512 2.00004 15.0001ZM 57 28.0001L 49 28.0001C 48.448 28.0001 48 27.5511 48 27.0001C 48 26.4491 48.448 26.0002 49 26.0002C 49.191 26.0002 49.3739 26.0551 49.542 26.1632C 49.8159 26.3401 50.158 26.3721 50.46 26.2501C 50.762 26.1271 50.9839 25.8652 51.0589 25.5482C 51.27 24.6371 52.067 24.0001 52.9999 24.0001C 53.933 24.0001 54.73 24.6371 54.9409 25.5482C 55.0159 25.8652 55.2379 26.1272 55.5398 26.2501C 55.8418 26.3721 56.1838 26.3401 56.4579 26.1632C 57.1099 25.7432 57.9998 26.2571 57.9998 27.0001C 58 27.5511 57.552 28.0001 57 28.0001Z"/>
<path id="path1_fill" d="M 0.999024 2.99988C 1.55203 2.99988 1.99805 2.55187 1.99805 1.99992L 2.00004 1.99992C 2.55305 1.99992 3 1.55191 3 0.999961C 3 0.448008 2.55305 1.02997e-06 2.00004 1.02997e-06C 0.897071 1.02997e-06 4.29153e-08 0.896953 4.29153e-08 2.00004C 0.00011723 2.55187 0.447071 2.99988 0.999024 2.99988Z"/>
<path id="path2_fill" d="M 9.53098 2.48297C 8.36004 0.858984 6.79301 3.3617e-07 5.00004 3.3617e-07C 1.55098 3.3617e-07 -7.15256e-07 2.33895 -7.15256e-07 3.99996C -7.15256e-07 8.3509 2.50605 9 3.99996 9C 5.37492 9 6.57492 7.83902 6.70699 7.70695C 7.09699 7.31801 7.09699 6.68801 6.70793 6.29695C 6.32191 5.90695 5.68899 5.90297 5.29594 6.28992C 5.00496 6.57586 4.39195 6.99996 3.99996 6.99996C 2.57894 6.99996 1.99992 6.13102 1.99992 3.99996C 1.99992 3.57797 2.50887 1.99992 4.99992 1.99992C 6.13992 1.99992 7.11797 2.55598 7.90793 3.65297C 9.59989 6 10.1119 10.5 9.05192 13.684C 7.86891 17.229 10.193 19.607 10.2929 19.707C 10.4879 19.902 10.744 19.9999 10.9999 19.9999C 11.256 19.9999 11.5119 19.902 11.7069 19.707C 12.098 19.3159 12.098 18.6839 11.7069 18.293C 11.691 18.2769 10.1529 16.7019 10.9479 14.316C 12.21 10.5329 11.587 5.33496 9.53098 2.48297Z"/>
<path id="path3_fill" d="M 0.999961 -7.15256e-07C 0.446953 -7.15256e-07 1.35899e-07 0.446955 1.35899e-07 0.999963C 1.35899e-07 1.55192 0.446953 1.99899 0.999961 1.99899L 0.999961 2.00004C 0.999961 2.55199 1.44691 3 1.99992 3C 2.55293 3 2.99988 2.55199 2.99988 2.00004C 2.99988 0.896954 2.10293 -7.15256e-07 0.999961 -7.15256e-07Z"/>
<path id="path4_fill" d="M 1.99992 1.00102L 1.99992 0.999961C 1.99992 0.448008 1.55297 1.23024e-06 0.999961 1.23024e-06C 0.446953 1.23024e-06 -1.32322e-07 0.448008 -1.32322e-07 0.999961C -1.32322e-07 2.10293 0.896953 3 2.00004 3C 2.55305 3 3 2.55305 3 2.00004C 2.99988 1.44797 2.55293 1.00102 1.99992 1.00102Z"/>
<path id="path5_fill" d="M 14.9999 1.78814e-07L 0.999961 1.78814e-07C 0.446953 1.78814e-07 -4.29153e-08 0.448008 -4.29153e-08 0.999961C -4.29153e-08 1.55191 0.446953 1.99992 0.999961 1.99992L 15 1.99992C 15.553 1.99992 16 1.55191 16 0.999961C 16 0.448008 15.5529 1.78814e-07 14.9999 1.78814e-07Z"/>
<path id="path6_fill" d="M 0.999961 1.99992L 9 1.99992C 9.55301 1.99992 9.99996 1.55191 9.99996 0.999961C 9.99996 0.448007 9.55301 8.72612e-07 9 8.72612e-07L 0.999961 8.72612e-07C 0.446953 8.72612e-07 -4.29154e-08 0.448007 -4.29154e-08 0.999961C -4.29154e-08 1.55191 0.446953 1.99992 0.999961 1.99992Z"/>
<path id="path7_fill" d="M 0.999961 1.99992L 10.9999 1.99992C 11.5529 1.99992 11.9999 1.55191 11.9999 0.999961C 11.9999 0.448008 11.5529 -4.00543e-07 10.9999 -4.00543e-07L 0.999961 -4.00543e-07C 0.446953 -4.00543e-07 -1.98824e-08 0.448008 -1.98824e-08 0.999961C -0.000117207 1.55191 0.446953 1.99992 0.999961 1.99992Z"/>
<path id="path8_fill" d="M 20.2287 4.88633C 19.7137 5.29836 19.1818 5.72528 18.4848 6.14329C 13.8537 8.92133 1.27671 7.03028 1.15179 7.01223C 0.608743 6.92821 0.0958133 7.30227 0.0117899 7.84825C -0.0722336 8.39422 0.301829 8.90422 0.847806 8.98825C 1.15085 9.03524 5.25781 9.65329 9.74878 9.65329C 13.3418 9.65329 17.1818 9.25731 19.5148 7.85727C 20.3259 7.37024 20.9388 6.87923 21.4788 6.44622C 22.6038 5.54423 23.2838 5.00024 24.9998 5.00024C 27.9578 5.00024 31.5848 4.06719 32.8948 1.44723C 33.1419 0.953168 32.9409 0.353286 32.4468 0.1052C 31.9529 -0.140776 31.3529 0.0591454 31.1048 0.553208C 30.3738 2.01723 27.9198 3.0002 24.9998 3.0002C 22.5808 3.00032 21.4378 3.91637 20.2287 4.88633Z"/>
<path id="path9_fill" d="M 55 0L 5.00004 0C 2.24297 0 0 2.24297 0 5.00004L 0 31.0001C 0 31.552 0.446953 32 0.999961 32C 1.55297 32 1.99992 31.552 1.99992 31.0001L 1.99992 5.00004C 1.99992 3.34606 3.34594 2.00004 4.99992 2.00004L 13.9999 2.00004L 13.9999 4.00008L 10.9999 4.00008C 10.4469 4.00008 9.99996 4.44809 9.99996 5.00004C 9.99996 5.55199 10.4469 6 10.9999 6L 19 6C 19.553 6 19.9999 5.55199 19.9999 5.00004C 19.9999 4.44809 19.553 4.00008 19 4.00008L 16 4.00008L 16 2.00004L 43.9999 2.00004L 43.9999 4.00008L 40.9999 4.00008C 40.4469 4.00008 40 4.44809 40 5.00004C 40 5.55199 40.4469 6 40.9999 6L 49 6C 49.553 6 49.9999 5.55199 49.9999 5.00004C 49.9999 4.44809 49.553 4.00008 49 4.00008L 46 4.00008L 46 2.00004L 55 2.00004C 56.6539 2.00004 58 3.34606 58 5.00004L 58 35C 58 36.654 56.6539 38 55 38L 16 38C 15.447 38 15 38.448 15 39C 15 39.552 15.447 40 16 40L 55 40C 57.7569 40 60 37.757 60 34.9999L 60 4.99992C 60 2.24297 57.757 0 55 0Z"/>
<path id="path10_fill" d="M 4.99992 5.57899e-07L 0.999961 5.57899e-07C 0.446953 5.57899e-07 -6.00815e-07 0.448007 -6.00815e-07 0.99996C -6.00815e-07 1.55191 0.446953 1.99992 0.999961 1.99992L 4.99992 1.99992C 5.55293 1.99992 5.99988 1.55191 5.99988 0.99996C 5.99988 0.448007 5.55293 5.57899e-07 4.99992 5.57899e-07Z"/>
<path id="path11_fill" d="M 23.5537 0.105781C 21.8907 0.937812 21.6987 2.35473 21.5726 3.29281C 21.5126 3.73977 21.4597 4.12683 21.2936 4.29383C 20.6087 4.97984 18.8406 4.89383 16.3167 4.05183C 13.0857 2.9798 2.61861 8.07383 0.55365 9.10578C 0.0597046 9.35375 -0.141389 9.95375 0.105642 10.4478C 0.281658 10.7979 0.634626 11.0008 1.00166 11.0008C 1.15166 11.0008 1.3047 10.9668 1.44767 10.8958C 6.27568 8.48082 13.8877 5.34687 15.6847 5.9498C 19.1077 7.09086 21.4036 7.01082 22.7077 5.70781C 23.3517 5.06387 23.4647 4.22984 23.5547 3.55977C 23.6738 2.67781 23.7617 2.23871 24.4477 1.89582C 24.9417 1.64785 25.1428 1.04785 24.8957 0.553789C 24.6467 0.0587887 24.0476 -0.141133 23.5537 0.105781Z"/>
</defs>
</svg>
