<svg width="60" height="60" viewBox="0 0 60 60" version="1.1" xmlns="http://www.w3.org/2000/svg" xmlns:xlink="http://www.w3.org/1999/xlink">
<title>chess</title>
<desc>Created using Figma</desc>
<g id="Canvas" transform="translate(455 -193)">
<g id="chess">
<g id="Group">
<g id="Group">
<g id="Group">
<g id="Vector">
<use xlink:href="#path0_fill" transform="translate(-430 193)" fill="#078DD6"/>
</g>
<g id="Vector">
<use xlink:href="#path1_fill" transform="translate(-455 213)" fill="#078DD6"/>
</g>
<g id="Vector">
<use xlink:href="#path2_fill" transform="translate(-432.938 207.021)" fill="#078DD6"/>
</g>
<g id="Vector">
<use xlink:href="#path3_fill" transform="translate(-437 219)" fill="#078DD6"/>
</g>
<g id="Vector">
<use xlink:href="#path4_fill" transform="translate(-411.35 232.467)" fill="#078DD6"/>
</g>
<g id="Vector">
<use xlink:href="#path5_fill" transform="translate(-440.691 232.467)" fill="#078DD6"/>
</g>
<g id="Vector">
<use xlink:href="#path6_fill" transform="translate(-413.806 213)" fill="#078DD6"/>
</g>
</g>
</g>
</g>
</g>
</g>
<defs>
<path id="path0_fill" d="M 0.999961 5.99996L 3.99996 5.99996L 3.99996 11C 3.99996 11.5519 4.44797 11.9999 4.99992 11.9999C 5.55188 11.9999 5.99988 11.5519 5.99988 11L 5.99988 5.99996L 8.99988 5.99996C 9.55184 5.99996 9.99984 5.55196 9.99984 5.00001C 9.99984 4.44806 9.55184 4.00005 8.99988 4.00005L 5.99988 4.00005L 5.99988 1.00007C 5.99988 0.448005 5.55188 0 4.99992 0C 4.44797 0 3.99996 0.448005 3.99996 0.999955L 3.99996 3.99994L 0.999961 3.99994C 0.448008 3.99994 -1.99306e-08 4.44794 -1.99306e-08 4.99989C -0.000117207 5.55196 0.447891 5.99996 0.999961 5.99996Z"/>
<path id="path1_fill" d="M 15.35 33.9998L 5.00004 33.9998C 4.50199 33.9998 4.00008 33.6907 4.00008 32.9998C 4.00008 29.2359 4.92012 27.3958 5.89512 25.4469C 6.93012 23.3769 8.00016 21.2359 8.00016 16.9999C 8.00016 16.448 7.55215 16 7.0002 16C 6.44918 16 6.00024 15.551 6.00024 15C 6.00024 14.449 6.44918 14.0001 7.0002 14.0001L 15 14.0001C 15.551 14.0001 16 14.449 16 15C 16 15.551 15.551 15.9999 15 15.9999L 10.999 15.9999C 10.447 15.9999 9.99902 16.4479 9.99902 16.9998C 9.99902 17.5518 10.447 17.9998 10.999 17.9998L 15 17.9998C 16.654 17.9998 18 16.6538 18 14.9998C 18 13.6118 17.048 12.4529 15.767 12.1118C 17.137 10.8329 18 9.01788 18 6.99992C 18 3.1399 14.86 8.72607e-07 11 8.72607e-07C 7.14 8.72607e-07 4.00008 3.14002 4.00008 6.99992C 4.00008 8.00995 4.21606 8.99186 4.64309 9.91787C 4.87406 10.4199 5.46914 10.6389 5.96906 10.4078C 6.4711 10.1769 6.69012 9.58283 6.45902 9.08186C 6.15399 8.41987 6 7.71886 6 6.99992C 6 4.24298 8.24297 1.99991 11 1.99991C 13.757 1.99991 16.0001 4.24286 16.0001 6.99992C 16.0001 9.75686 13.7571 11.9999 11 11.9999L 6.99996 11.9999C 5.34598 11.9999 3.99996 13.3459 3.99996 14.9999C 3.99996 16.2979 4.82895 17.4059 5.98395 17.8229C 5.85996 21.0429 5.0059 22.7519 4.10496 24.5529C 3.06996 26.6229 1.99992 28.7639 1.99992 32.9998C 1.99992 33.4008 2.07691 33.7758 2.20688 34.1198C 0.939024 34.4698 0 35.6217 0 36.9997L 0 38.9998C 0 39.5517 0.448008 39.9997 0.999961 39.9997L 15 39.9997C 15.552 39.9997 16 39.5517 16 38.9998C 16 38.4478 15.552 37.9998 15 37.9998L 2.00004 37.9998L 2.00004 36.9997C 2.00004 36.4487 2.44898 35.9998 3 35.9998L 5.00004 35.9998L 15.35 35.9998C 15.902 35.9998 16.35 35.5518 16.35 34.9998C 16.35 34.4479 15.902 33.9998 15.35 33.9998Z"/>
<path id="path2_fill" d="M 1.26855 9.66791C 1.37261 10.2099 1.89456 10.5649 2.4396 10.4609C 2.9816 10.3559 3.33656 9.83197 3.23156 9.28987L 2.11652 3.50693C 3.10546 2.98088 5.31152 1.99991 7.99956 1.99991C 10.6636 1.99991 12.8756 2.97795 13.8745 3.50494L 11.9585 12.7759C 11.8975 13.0709 11.9725 13.377 12.1625 13.61C 12.3525 13.844 12.6366 13.979 12.9375 13.979C 13.4885 13.979 13.9375 14.4279 13.9375 14.9789C 13.9375 15.5299 13.4885 15.9789 12.9375 15.9789L 6.9375 15.9789C 6.38554 15.9789 5.93753 16.4269 5.93753 16.9788C 5.93753 17.5308 6.38554 17.9788 6.9375 17.9788L 12.9375 17.9788C 14.5915 17.9788 15.9375 16.6328 15.9375 14.9788C 15.9375 13.7428 15.1864 12.6788 14.1155 12.2199L 15.9794 3.20295C 16.0624 2.80299 15.8945 2.39401 15.5544 2.16796C 15.4214 2.07995 12.2534 4.36303e-07 7.99945 4.36303e-07C 3.74648 4.36303e-07 0.578432 2.07995 0.445424 2.16796C 0.110385 2.39096 -0.0585988 2.79397 0.0183934 3.189L 1.26855 9.66791Z"/>
<path id="path3_fill" d="M 21.786 28.1176C 21.921 27.7726 22 27.3976 22 26.9996C 22 23.2386 21.1489 20.7307 20.2489 18.0747C 19.367 15.4746 18.4549 12.7857 18.1249 8.4637C 18.083 7.91374 17.6039 7.49972 17.052 7.54273C 16.5009 7.58468 16.0889 8.06573 16.131 8.61674C 16.48 13.1887 17.4759 16.1257 18.355 18.7167C 19.238 21.3207 19.9999 23.5687 19.9999 26.9997C 19.9999 27.5887 19.5889 27.9997 19 27.9997L 9 27.9997C 8.44805 27.9997 8.00004 28.4477 8.00004 28.9996C 8.00004 29.5516 8.44805 29.9996 9 29.9996L 21 29.9996C 21.551 29.9996 22 30.4485 22 30.9995L 22 31.9995L 2.00004 31.9995L 2.00004 30.9995C 2.00004 30.4485 2.44898 29.9996 3 29.9996L 5.00004 29.9996C 5.55199 29.9996 6 29.5516 6 28.9996C 6 28.4477 5.55199 27.9997 5.00004 27.9997C 4.50199 27.9997 4.00008 27.6907 4.00008 26.9997C 4.00008 23.5687 4.76203 21.3198 5.64504 18.7167C 6.74906 15.4607 8.00004 11.7707 8.00004 4.99977C 8.00004 4.44782 7.55203 3.99982 7.00008 3.99982C 6.44906 3.99982 6.00012 3.55088 6.00012 2.99987C 6.00012 2.44885 6.44906 1.99991 7.00008 1.99991L 13.0001 1.99991C 13.552 1.99991 14 1.5519 14 0.999954C 14 0.448004 13.552 3.86236e-07 13.0001 3.86236e-07L 7.00008 3.86236e-07C 5.34609 3.86236e-07 4.00008 1.34601 4.00008 2.99998C 4.00008 4.30099 4.83305 5.41192 5.99309 5.82594C 5.89605 11.7479 4.7591 15.1009 3.75105 18.0749C 2.85105 20.7299 2.00004 23.2388 2.00004 26.9998C 2.00004 27.3958 2.06906 27.7688 2.19598 28.1089C 0.930938 28.4609 7.15256e-07 29.6239 7.15256e-07 30.9999L 7.15256e-07 32.9999C 7.15256e-07 33.5519 0.448007 33.9999 0.99996 33.9999L 22.9999 33.9999C 23.5519 33.9999 23.9999 33.5519 23.9999 32.9999L 23.9999 30.9995C 24 29.6196 23.058 28.4656 21.786 28.1176Z"/>
<path id="path4_fill" d="M 14.136 14.6504C 14.271 14.3054 14.35 13.9304 14.35 13.5324C 14.35 9.29646 13.2799 7.15546 12.2449 5.08547C 11.5979 3.79044 10.986 2.56853 10.6399 0.808503C 10.5329 0.266514 10.0099 -0.091492 9.46488 0.0205385C 8.92383 0.12753 8.57086 0.653583 8.67785 1.19557C 9.07582 3.22056 9.77684 4.62258 10.4549 5.97949C 11.4299 7.92842 12.3499 9.76849 12.3499 13.5324C 12.3499 14.1214 11.9389 14.5324 11.35 14.5324L 0.999961 14.5324C 0.448008 14.5324 1.28746e-06 14.9804 1.28746e-06 15.5323C 1.28746e-06 16.0843 0.448008 16.5323 0.999961 16.5323L 11.35 16.5323L 13.35 16.5323C 13.901 16.5323 14.35 16.9812 14.35 17.5322L 14.35 18.5322L 1.35 18.5322C 0.798047 18.5322 0.35004 18.9802 0.35004 19.5321C 0.35004 20.0841 0.798047 20.5323 1.35 20.5323L 15.35 20.5323C 15.902 20.5323 16.35 20.0843 16.35 19.5324L 16.35 17.5324C 16.35 16.1524 15.408 14.9984 14.136 14.6504Z"/>
<path id="path5_fill" d="M 4.4181 6.83741C 4.15408 6.22441 3.87013 5.65547 3.58607 5.08547C 2.93908 3.79149 2.32701 2.56853 1.98107 0.808503C 1.87408 0.266514 1.34802 -0.091492 0.807085 0.0205385C 0.265093 0.12753 -0.0878768 0.653582 0.0191154 1.19452C 0.417084 3.22056 1.1181 4.62352 1.79708 5.98054C 2.06509 6.5155 2.3331 7.05058 2.58013 7.62655C 2.74208 8.00553 3.11111 8.23252 3.49912 8.23252C 3.63013 8.23252 3.76408 8.20651 3.8931 8.15155C 4.40005 7.93346 4.63501 7.34542 4.4181 6.83741Z"/>
<path id="path6_fill" d="M 4.80598 16.9998C 4.80598 16.4479 4.35797 15.9999 3.80602 15.9999C 3.255 15.9999 2.80606 15.5509 2.80606 14.9999C 2.80606 14.4489 3.255 14 3.80602 14L 11.8061 14C 12.3571 14 12.806 14.4489 12.806 14.9999C 12.806 15.5509 12.3571 15.9999 11.8061 15.9999L 7.80504 15.9999C 7.25309 15.9999 6.80508 16.4479 6.80508 16.9998C 6.80508 17.5518 7.25309 17.9998 7.80504 17.9998L 11.8061 17.9998C 13.46 17.9998 14.8061 16.6538 14.8061 14.9998C 14.8061 13.6118 13.854 12.4529 12.5731 12.1118C 13.9431 10.8329 14.8061 9.01788 14.8061 6.99992C 14.8061 3.1399 11.666 8.72607e-07 7.8061 8.72607e-07C 3.94618 8.72607e-07 0.806018 3.1399 0.806018 6.99992C 0.806018 8.00995 1.02199 8.99186 1.44903 9.91787C 1.68 10.4199 2.27403 10.6389 2.775 10.4078C 3.27703 10.1769 3.49606 9.58283 3.26496 9.08186C 2.95992 8.41987 2.80594 7.71886 2.80594 6.99992C 2.80594 4.24298 5.04891 1.99991 7.80598 1.99991C 10.5629 1.99991 12.806 4.24287 12.806 6.99992C 12.806 9.75686 10.5631 11.9999 7.80598 11.9999L 3.80602 11.9999C 2.15203 11.9999 0.806018 13.3459 0.806018 14.9999C 0.806018 16.2979 1.635 17.4059 2.79 17.8229C 2.66602 21.0469 1.81196 22.7579 0.911018 24.5619C 0.627072 25.1308 0.344067 25.6999 0.0809811 26.3118C -0.13605 26.8188 0.097971 27.4068 0.605979 27.6248C 0.735002 27.6798 0.86801 27.7058 0.999963 27.7058C 1.38797 27.7058 1.757 27.4788 1.91895 27.0998C 2.16598 26.5238 2.43293 25.9898 2.70094 25.4558C 3.73606 23.3818 4.80598 21.2388 4.80598 16.9998Z"/>
</defs>
</svg>
