<svg width="60" height="60" viewBox="0 0 60 60" version="1.1" xmlns="http://www.w3.org/2000/svg" xmlns:xlink="http://www.w3.org/1999/xlink">
<title>puzzle</title>
<desc>Created using Figma</desc>
<g id="Canvas" transform="translate(165 -193)">
<g id="puzzle">
<g id="Group">
<g id="Group">
<g id="Vector">
<use xlink:href="#path0_fill" transform="translate(-165 193)" fill="#FF5757"/>
</g>
</g>
</g>
</g>
</g>
<defs>
<path id="path0_fill" d="M 59 27C 59.552 27 60 26.552 60 26L 60 3.99996C 60 1.79402 58.206 0 56 0L 30 0C 29.448 0 29 0.448008 29 0.999961L 29 7.99992C 29 10.2009 30.7941 10.9999 32 10.9999C 32.994 10.9999 33.855 10.4619 34.425 9.48598C 34.968 8.55598 35.931 7.99992 37 7.99992C 38.738 7.99992 40 9.68191 40 11.9999C 40 14.3179 38.738 15.9998 37 15.9998C 35.933 15.9998 34.9399 15.4199 34.4089 14.4848C 33.8709 13.5409 32.993 12.9998 31.9999 12.9998C 30.7939 12.9998 28.9999 13.7988 28.9999 15.9998L 28.9999 28.9998L 16 28.9998C 15.195 28.9998 15.012 28.4498 15 27.9998C 15 27.7338 15.16 27.5079 15.474 27.3288C 17.032 26.4429 18 24.7848 18 22.9998C 18 20.1489 15.42 17.9998 12 17.9998C 8.58 17.9998 6 20.1488 6 22.9998C 6 24.7608 6.94898 26.4098 8.47805 27.3018C 9 27.6068 9 27.9028 9 27.9878C 8.98805 28.4497 8.805 28.9998 8.00004 28.9998L 2.00004 28.9998L 2.00004 3.99996C 2.00004 2.89699 2.89699 1.99992 4.00008 1.99992L 26 1.99992C 26.552 1.99992 27 1.55191 27 0.999961C 27 0.448008 26.552 0 26 0L 3.99996 0C 1.79402 0 0 1.79402 0 3.99996L 0 30C 0 30.552 0.448008 31 0.999961 31L 7.99992 31C 10.2009 31 10.9999 29.2059 10.9999 28C 10.9999 27.006 10.4619 26.145 9.48598 25.575C 8.55598 25.032 7.99992 24.069 7.99992 23C 7.99992 21.262 9.68191 20 11.9999 20C 14.3179 20 15.9998 21.262 15.9998 23C 15.9998 24.067 15.4199 25.0601 14.4848 25.5911C 13.5409 26.1291 12.9998 27.007 12.9998 28.0001C 12.9998 29.2061 13.7988 31.0001 15.9998 31.0001L 28.9998 31.0001L 28.9998 44C 28.9998 44.805 28.4498 44.988 27.9998 45C 27.7338 45 27.5079 44.84 27.3288 44.525C 26.4429 42.9681 24.7839 42 22.9998 42C 20.1489 42 17.9998 44.58 17.9998 48C 17.9998 51.42 20.1488 54 22.9998 54C 24.7608 54 26.4098 53.05 27.3018 51.522C 27.6068 51 27.9028 51 27.9878 51C 28.4497 51.012 28.9998 51.195 28.9998 52L 28.9998 58L 3.99996 58C 2.89699 58 1.99992 57.103 1.99992 55.9999L 1.99992 34C 1.99992 33.448 1.55191 33 0.999961 33C 0.448008 33 0 33.448 0 34L 0 55.9999C 0 58.206 1.79402 60 3.99996 60L 30 60C 30.552 60 31 59.552 31 59L 31 52.0001C 31 49.7991 29.2059 49.0001 28 49.0001C 27.006 49.0001 26.145 49.5381 25.575 50.514C 25.032 51.444 24.069 52.0001 23 52.0001C 21.262 52.0001 20 50.3181 20 48.0001C 20 45.6822 21.262 44.0002 23 44.0002C 24.067 44.0002 25.0601 44.5801 25.59 45.5132C 26.126 46.4582 27.005 47.0002 28 47.0002C 29.2059 47.0002 31 46.2012 31 44.0002L 31 31L 43.9999 31C 44.8049 31 44.9879 31.5499 44.9999 31.9999C 44.9999 32.2659 44.8399 32.4919 44.5249 32.6709C 42.968 33.557 41.9999 35.2159 41.9999 37C 41.9999 39.851 44.5799 42 47.9999 42C 51.4199 42 53.9999 39.851 53.9999 37C 53.9999 35.239 53.0498 33.5899 51.5218 32.698C 50.9999 32.393 50.9999 32.097 50.9999 32.012C 51.0118 31.55 51.1949 31 51.9998 31L 57.9998 31L 57.9998 55.9999C 57.9998 57.1029 57.1029 58 55.9998 58L 34 58C 33.448 58 33 58.448 33 58.9999C 33 59.5519 33.448 59.9999 34 59.9999L 55.9999 59.9999C 58.206 60 60 58.206 60 56L 60 30C 60 29.448 59.552 29 59 29L 52.0001 29C 49.7991 29 49.0001 30.7941 49.0001 32C 49.0001 32.994 49.5381 33.855 50.514 34.425C 51.444 34.968 52.0001 35.931 52.0001 37C 52.0001 38.738 50.3181 40 48.0001 40C 45.6822 40 44.0002 38.738 44.0002 37C 44.0002 35.933 44.5801 34.9399 45.5132 34.41C 46.4582 33.874 47.0002 32.995 47.0002 32C 47.0002 30.7941 46.2012 29 44.0002 29L 31 29L 31 16C 31 15.195 31.5499 15.012 31.9999 15C 32.2659 15 32.4919 15.16 32.6709 15.474C 33.557 17.032 35.215 18 37 18C 39.851 18 42 15.42 42 12C 42 8.58 39.851 6 37 6C 35.239 6 33.5899 6.94898 32.698 8.47805C 32.393 9 32.097 9 32.012 9C 31.55 8.98805 31 8.805 31 8.00004L 31 2.00004L 55.9999 2.00004C 57.1029 2.00004 58 2.89699 58 4.00008L 58 26C 58 26.552 58.448 27 59 27Z"/>
</defs>
</svg>
