<svg width="60" height="60" viewBox="0 0 60 60" version="1.1" xmlns="http://www.w3.org/2000/svg" xmlns:xlink="http://www.w3.org/1999/xlink">
<title>strategy-2</title>
<desc>Created using Figma</desc>
<g id="Canvas" transform="translate(746 -193)">
<g id="strategy-2">
<g id="Group">
<g id="Group">
<g id="Group">
<g id="Vector">
<use xlink:href="#path0_fill" transform="translate(-714 247)" fill="#9162FF"/>
</g>
<g id="Vector">
<use xlink:href="#path1_fill" transform="translate(-708 209)" fill="#9162FF"/>
</g>
<g id="Vector">
<use xlink:href="#path2_fill" transform="translate(-724 241)" fill="#9162FF"/>
</g>
<g id="Vector">
<use xlink:href="#path3_fill" transform="translate(-746 193)" fill="#9162FF"/>
</g>
<g id="Vector">
<use xlink:href="#path4_fill" transform="translate(-712 225)" fill="#9162FF"/>
</g>
<g id="Vector">
<use xlink:href="#path5_fill" transform="translate(-734 209)" fill="#9162FF"/>
</g>
<g id="Vector">
<use xlink:href="#path6_fill" transform="translate(-736 207)" fill="#9162FF"/>
</g>
</g>
</g>
</g>
</g>
</g>
<defs>
<path id="path0_fill" d="M 1.70727 0.29329C 1.31622 -0.0977651 0.684227 -0.0977651 0.293289 0.29329C -0.0977653 0.684227 -0.0977653 1.31634 0.293289 1.70727L 4.29325 5.70735C 4.48825 5.90235 4.74431 6.00032 5.00024 6.00032C 5.2563 6.00032 5.51224 5.90235 5.70723 5.70735C 6.09829 5.31642 6.09829 4.68431 5.70723 4.29337L 1.70727 0.29329Z"/>
<path id="path1_fill" d="M 5.00004 10.0001C 7.75699 10.0001 10.0001 7.75711 10.0001 5.00004C 10.0001 2.24297 7.75711 5.57899e-07 5.00004 5.57899e-07C 2.24297 5.57899e-07 -1.02997e-06 2.24297 -1.02997e-06 5.00004C -1.02997e-06 7.75711 2.24309 10.0001 5.00004 10.0001ZM 5.00004 2.00004C 6.65403 2.00004 8.00004 3.34605 8.00004 5.00004C 8.00004 6.65402 6.65403 8.00004 5.00004 8.00004C 3.34606 8.00004 2.00004 6.65402 2.00004 5.00004C 2.00004 3.34605 3.34606 2.00004 5.00004 2.00004Z"/>
<path id="path2_fill" d="M 8.00016 7.15256e-07C 7.44715 7.15256e-07 7.0002 0.448007 7.0002 0.99996L 7.0002 3.58594L 0.293202 10.2929C -0.0977352 10.684 -0.0977352 11.316 0.293202 11.7069C 0.488202 11.9019 0.744258 11.9999 1.0002 11.9999C 1.25625 11.9999 1.51219 11.9019 1.70719 11.7069L 8.70715 4.70695C 8.89512 4.51992 9.00012 4.26492 9.00012 3.99996L 9.00012 0.99996C 9.00012 0.448007 8.55316 7.15256e-07 8.00016 7.15256e-07Z"/>
<path id="path3_fill" d="M 59 2.00004L 31 2.00004L 31 0.999961C 31 0.448008 30.553 0 30 0C 29.447 0 29 0.448008 29 0.999961L 29 1.99992L 0.999961 1.99992C 0.446953 2.00004 0 2.44805 0 3L 0 6.99996C 0 7.55191 0.446953 7.99992 0.999961 7.99992L 52.9999 7.99992C 53.5529 7.99992 53.9999 7.55191 53.9999 6.99996C 53.9999 6.44801 53.5529 6 52.9999 6L 1.99992 6L 1.99992 3.99996L 58 3.99996L 58 6L 57 6C 56.447 6 56 6.44801 56 6.99996L 56 40.9999C 56 42.6539 54.654 43.9999 53 43.9999L 6.99996 43.9999C 5.34598 43.9999 3.99996 42.6539 3.99996 40.9999L 3.99996 10.9999C 3.99996 10.448 3.55301 9.99996 3 9.99996C 2.44699 9.99996 2.00004 10.448 2.00004 10.9999L 2.00004 40.9999C 2.00004 43.7569 4.24301 46 7.00008 46L 53 46C 55.757 46 58.0001 43.757 58.0001 40.9999L 58.0001 7.99992L 59 7.99992C 59.553 7.99992 60 7.55191 60 6.99996L 60 3C 60 2.44805 59.553 2.00004 59 2.00004Z"/>
<path id="path4_fill" d="M 1.70728 0.293407C 1.31622 -0.0976481 0.684229 -0.0976481 0.293291 0.293407C -0.0977633 0.684344 -0.0977633 1.31645 0.293291 1.70739L 1.58634 3.00044L 0.293291 4.29337C -0.0977633 4.68442 -0.0977633 5.31641 0.293291 5.70735C 0.488291 5.90235 0.744345 6.00032 1.00028 6.00032C 1.25634 6.00032 1.51228 5.90235 1.70728 5.70735L 3.00032 4.41431L 4.29337 5.70735C 4.48837 5.90235 4.74442 6.00032 5.00036 6.00032C 5.25642 6.00032 5.51236 5.90235 5.70736 5.70735C 6.09841 5.3163 6.09841 4.68431 5.70736 4.29337L 4.41431 3.00032L 5.70736 1.70727C 6.09841 1.31622 6.09841 0.68423 5.70736 0.293292C 5.31642 -0.0977625 4.68431 -0.0977625 4.29337 0.293292L 3.00032 1.58634L 1.70728 0.293407Z"/>
<path id="path5_fill" d="M 2.04199 16.1713C 0.858984 16.5732 1.78814e-07 17.6832 1.78814e-07 19.0003C 1.78814e-07 20.6543 1.34602 22.0003 3 22.0003C 4.65398 22.0003 6 20.6543 6 19.0003C 6 17.7133 5.18203 16.6223 4.04098 16.1973C 4.455 10.5063 9.20602 6.00032 15 6.00032L 20.586 6.00032L 18.293 8.29321C 17.902 8.68427 17.902 9.31626 18.293 9.7072C 18.488 9.9022 18.744 10.0002 19 10.0002C 19.256 10.0002 19.512 9.9022 19.707 9.7072L 23.706 5.70817C 23.799 5.61513 23.872 5.50521 23.923 5.38216C 24.024 5.13817 24.024 4.8622 23.923 4.61821C 23.872 4.49517 23.799 4.38525 23.706 4.29325L 19.707 0.293291C 19.3159 -0.0977641 18.6839 -0.0977641 18.293 0.293291C 17.902 0.684228 17.902 1.31634 18.293 1.70728L 20.586 4.00028L 15 4.00028C 8.11102 4.00028 2.47301 9.38927 2.04199 16.1713ZM 3 20.0002C 2.44805 20.0002 2.00004 19.5513 2.00004 19.0003C 2.00004 18.4493 2.44805 18.0003 3 18.0003C 3.55195 18.0003 3.99996 18.4493 3.99996 19.0003C 3.99996 19.5513 3.55195 20.0002 3 20.0002Z"/>
<path id="path6_fill" d="M 0.293291 5.70727C 0.488291 5.90227 0.744345 6.00023 1.00028 6.00023C 1.25634 6.00023 1.51228 5.90227 1.70728 5.70727L 3.00032 4.41422L 4.29337 5.70727C 4.48837 5.90227 4.74442 6.00023 5.00036 6.00023C 5.2563 6.00023 5.51235 5.90227 5.70735 5.70727C 6.09841 5.31621 6.09841 4.68422 5.70735 4.29328L 4.41431 3.00023L 5.70735 1.70719C 6.09841 1.31613 6.09841 0.684141 5.70735 0.293204C 5.3163 -0.097734 4.68431 -0.097734 4.29337 0.293204L 3.00032 1.58625L 1.70728 0.293321C 1.31634 -0.0976168 0.684228 -0.0976168 0.293291 0.293321C -0.0977637 0.684375 -0.0977637 1.31637 0.293291 1.70731L 1.58634 3.00035L 0.293291 4.29328C -0.0977637 4.68434 -0.0977637 5.31633 0.293291 5.70727Z"/>
</defs>
</svg>
