<svg width="30" height="30" viewBox="0 0 30 30" version="1.1" xmlns="http://www.w3.org/2000/svg" xmlns:xlink="http://www.w3.org/1999/xlink">
<title>Ellipse 2</title>
<desc>Created using Figma</desc>
<g id="Canvas" transform="matrix(2 0 0 2 -2708 -192)">
<g id="Ellipse 2">
<mask id="mask0_outline_ins">
<use xlink:href="#path0_fill" fill="white" transform="translate(1354 96)"/>
</mask>
<g mask="url(#mask0_outline_ins)">
<use xlink:href="#path1_stroke_2x" transform="translate(1354 96)" fill="#536275" fill-opacity="0.4"/>
</g>
</g>
</g>
<defs>
<path id="path0_fill" d="M 15 7.5C 15 11.6421 11.6421 15 7.5 15C 3.35786 15 0 11.6421 0 7.5C 0 3.35786 3.35786 0 7.5 0C 11.6421 0 15 3.35786 15 7.5Z"/>
<path id="path1_stroke_2x" d="M 14 7.5C 14 11.0899 11.0899 14 7.5 14L 7.5 16C 12.1944 16 16 12.1944 16 7.5L 14 7.5ZM 7.5 14C 3.91015 14 1 11.0899 1 7.5L -1 7.5C -1 12.1944 2.80558 16 7.5 16L 7.5 14ZM 1 7.5C 1 3.91015 3.91015 1 7.5 1L 7.5 -1C 2.80558 -1 -1 2.80558 -1 7.5L 1 7.5ZM 7.5 1C 11.0899 1 14 3.91015 14 7.5L 16 7.5C 16 2.80558 12.1944 -1 7.5 -1L 7.5 1Z"/>
</defs>
</svg>
